<svg width="24" height="24" viewBox="0 0 24 24" fill="none" xmlns="http://www.w3.org/2000/svg">
<path d="M21.9992 9.99994H6.81286L13.4156 3.42536C13.7924 3.04906 14.004 2.53869 14.004 2.00653C14.004 1.47437 13.7924 0.963996 13.4156 0.587699C13.0388 0.211402 12.5278 0 11.995 0C11.4622 0 10.9512 0.211402 10.5744 0.587699L0.570264 10.5795C0.388107 10.7695 0.245318 10.9936 0.150089 11.2389C-0.0500298 11.7254 -0.0500298 12.2711 0.150089 12.7577C0.245318 13.003 0.388107 13.2271 0.570264 13.4171L10.5744 23.4089C10.7604 23.5962 10.9817 23.7449 11.2255 23.8463C11.4694 23.9478 11.7309 24 11.995 24C12.2591 24 12.5207 23.9478 12.7645 23.8463C13.0083 23.7449 13.2296 23.5962 13.4156 23.4089C13.6031 23.2231 13.752 23.0021 13.8536 22.7586C13.9551 22.5151 14.0074 22.2539 14.0074 21.9901C14.0074 21.7263 13.9551 21.4651 13.8536 21.2215C13.752 20.978 13.6031 20.757 13.4156 20.5712L6.81286 13.9966H21.9992C22.5298 13.9966 23.0387 13.7861 23.414 13.4113C23.7892 13.0366 24 12.5283 24 11.9983C24 11.4683 23.7892 10.96 23.414 10.5852C23.0387 10.2105 22.5298 9.99994 21.9992 9.99994Z" fill="#25282B"/>
</svg>
