<svg width="91" height="78" viewBox="0 0 91 78" fill="none" xmlns="http://www.w3.org/2000/svg">
<path d="M80.0849 10.0172L68.0907 10.0524L62.1681 1.53285C61.8508 1.07666 61.4218 0.703071 60.9191 0.445191C60.4165 0.18731 59.8556 0.0530945 59.2863 0.0544345L31.5941 0.135666C31.0248 0.137666 30.4648 0.275169 29.9637 0.535994C29.4625 0.796819 29.0357 1.17291 28.7211 1.63096L22.8443 10.1851L10.8544 10.2203C8.10024 10.2284 5.46199 11.2922 3.52002 13.1777C1.57804 15.0632 0.491438 17.616 0.499236 20.2745L0.636451 67.0518C0.644249 69.7103 1.74581 72.2566 3.69881 74.1307C5.65181 76.0048 8.29627 77.0532 11.0504 77.0451L80.2809 76.842C83.0351 76.8339 85.6733 75.7701 87.6153 73.8846C89.5573 71.9991 90.6439 69.4463 90.6361 66.7878L90.4988 20.0105C90.4911 17.352 89.3895 14.8057 87.4365 12.9316C85.4835 11.0575 82.839 10.0091 80.0849 10.0172ZM83.713 66.8081C83.7156 67.6943 83.3534 68.5452 82.7061 69.1737C82.0588 69.8022 81.1794 70.1568 80.2613 70.1595L11.0308 70.3626C10.1128 70.3653 9.23129 70.0159 8.58029 69.3912C7.92929 68.7665 7.5621 67.9177 7.5595 67.0315L7.42228 20.2542C7.41968 19.368 7.78189 18.5171 8.42921 17.8886C9.07653 17.2601 9.95595 16.9055 10.874 16.9028L24.7201 16.8622C25.2901 16.8609 25.851 16.7237 26.353 16.4628C26.855 16.202 27.2824 15.8255 27.5975 15.3669L33.4657 6.81271L57.4497 6.74236L63.3723 15.2619C63.69 15.7187 64.1197 16.0926 64.6232 16.3506C65.1266 16.6085 65.6884 16.7423 66.2584 16.7403L80.1045 16.6997C81.0225 16.697 81.904 17.0465 82.555 17.6711C83.206 18.2958 83.5732 19.1446 83.5758 20.0308L83.713 66.8081ZM45.5088 23.4837C41.7434 23.4948 38.0657 24.5833 34.9408 26.6118C31.8158 28.6402 29.3841 31.5175 27.953 34.8796C26.5218 38.2418 26.1556 41.9378 26.9007 45.5004C27.6458 49.063 29.4686 52.3322 32.1387 54.8944C34.8088 57.4566 38.2063 59.1969 41.9014 59.8951C45.5966 60.5934 49.4235 60.2182 52.8982 58.8171C56.373 57.416 59.3394 55.0519 61.4225 52.0237C63.5056 48.9955 64.6118 45.4393 64.6011 41.8047C64.5811 36.9326 62.5597 32.2674 58.9805 28.8328C55.4012 25.3981 50.5564 23.4744 45.5088 23.4837ZM45.5971 53.5549C43.2009 53.5619 40.8565 52.8829 38.8604 51.6038C36.8642 50.3246 35.306 48.5028 34.3828 46.3686C33.4595 44.2344 33.2127 41.8838 33.6735 39.6139C34.1343 37.3441 35.2821 35.257 36.9717 33.6165C38.6612 31.9761 40.8167 30.856 43.1655 30.3978C45.5143 29.9397 47.951 30.1642 50.1674 31.0428C52.3838 31.9214 54.2803 33.4147 55.6172 35.334C56.9541 37.2532 57.6713 39.5121 57.6781 41.825C57.6872 44.9265 56.4195 47.9048 54.1538 50.1045C51.8882 52.3043 48.8102 53.5454 45.5971 53.5549Z" fill="#E93C3C"/>
</svg>
