<svg width="102" height="112" viewBox="0 0 102 112" fill="none" xmlns="http://www.w3.org/2000/svg">
<path d="M96.2208 76.1615V36.0633C96.219 34.3054 95.755 32.5788 94.8752 31.0569C93.9955 29.5349 92.731 28.2711 91.2086 27.3921L56.1227 7.34303C54.5988 6.4632 52.8701 6 51.1104 6C49.3507 6 47.6221 6.4632 46.0981 7.34303L11.0123 27.3921C9.48985 28.2711 8.22535 29.5349 7.3456 31.0569C6.46585 32.5788 6.0018 34.3054 6 36.0633V76.1615C6.0018 77.9194 6.46585 79.6459 7.3456 81.1679C8.22535 82.6899 9.48985 83.9537 11.0123 84.8327L46.0981 104.882C47.6221 105.762 49.3507 106.225 51.1104 106.225C52.8701 106.225 54.5988 105.762 56.1227 104.882L91.2086 84.8327C92.731 83.9537 93.9955 82.6899 94.8752 81.1679C95.755 79.6459 96.219 77.9194 96.2208 76.1615Z" fill="#BB0A08" stroke="#BB0A08" stroke-width="10.0245" stroke-linecap="round" stroke-linejoin="round"/>
</svg>
