<svg width="17" height="17" viewBox="0 0 17 17" fill="none" xmlns="http://www.w3.org/2000/svg">
<path d="M3.86432 0.854254C3.71759 0.90156 3.48685 1.07724 3.41844 1.19306C3.39358 1.24001 3.37552 1.47757 3.3674 1.90259L3.35365 2.54326L2.5412 2.56127C1.65376 2.58262 1.60379 2.59214 1.30123 2.78678C0.998684 2.98454 0.752892 3.35402 0.685215 3.71984C0.66366 3.82928 0.660189 5.8418 0.671198 9.59491C0.685608 14.5074 0.694278 15.3324 0.735453 15.5197C0.833684 15.982 1.12243 16.4061 1.47618 16.6176C1.82991 16.8259 1.35175 16.8148 8.4111 16.7941C15.4704 16.7734 14.9924 16.7873 15.3449 16.5769C15.6974 16.3634 15.9836 15.9375 16.0791 15.4747C16.147 15.1558 16.1141 3.95896 16.0476 3.64353C15.943 3.15946 15.6138 2.77605 15.1507 2.59615C15.035 2.55274 14.8662 2.54074 14.1974 2.52708L13.3849 2.51383L13.3674 1.87326C13.3567 1.44829 13.3373 1.21084 13.3121 1.16404C13.2399 1.03925 13.0082 0.871182 12.8424 0.824793C12.711 0.787679 12.5298 0.778835 11.9204 0.789998C11.2079 0.801463 11.1517 0.804753 11.0332 0.870726C10.8709 0.958702 10.7526 1.09655 10.7093 1.2498C10.6938 1.31235 10.6791 1.62802 10.6801 1.94989L10.6818 2.53739L8.3693 2.54417L6.05681 2.55096L6.05509 1.96346C6.05414 1.64158 6.03759 1.32601 6.02178 1.26355C5.97758 1.11056 5.85843 0.973405 5.69567 0.886383C5.57361 0.821115 5.5236 0.818137 4.78608 0.81405C4.17982 0.809579 3.9736 0.819558 3.86432 0.854254ZM5.27584 2.647L5.27895 3.70949L4.74144 3.70482L4.20079 3.69703L4.18831 2.64081L4.17898 1.58771L4.72585 1.58611L5.27272 1.5845L5.27584 2.647ZM12.6133 2.6161L12.607 3.67237L12.0133 3.67411L11.4195 3.67585L11.407 2.61964L11.3977 1.56653L12.0071 1.56475L12.6164 1.56296L12.6133 2.6161ZM3.37248 3.63696C3.38912 3.98066 3.42689 4.0743 3.59923 4.23317C3.82172 4.44189 3.84361 4.44808 4.69989 4.45494C5.59992 4.4648 5.66863 4.44898 5.86796 4.22339C6.02058 4.05107 6.0608 3.91032 6.0598 3.5697L6.05901 3.30095L8.3715 3.29417L10.684 3.28739L10.6848 3.55613C10.6858 3.89676 10.7268 4.03726 10.8804 4.20869C11.0811 4.4331 11.1499 4.44852 12.0499 4.43338C12.9061 4.4215 12.9279 4.41518 13.1492 4.20516C13.3206 4.04528 13.3578 3.95142 13.3724 3.60763L13.3871 3.29508L14.0527 3.28375C14.7933 3.27221 14.909 3.29062 15.0813 3.44011C15.3069 3.63945 15.3101 3.64569 15.314 4.98319L15.3175 6.18006L8.38002 6.20041L1.44255 6.22076L1.43904 5.02389C1.43517 3.70202 1.43824 3.68638 1.64705 3.49202C1.81533 3.33215 1.91528 3.31311 2.66843 3.32027L3.35594 3.32451L3.37248 3.63696ZM15.3259 11.1707C15.3282 15.1582 15.3259 15.4207 15.2731 15.5334C15.1985 15.6929 15.0085 15.8998 14.8868 15.9532C14.737 16.0162 2.08077 16.0533 1.93058 15.9881C1.87427 15.9664 1.7709 15.8823 1.70192 15.8044C1.45422 15.5239 1.4708 15.8488 1.45703 11.1551L1.44475 6.97075L8.38222 6.9504L15.3197 6.93005L15.3259 11.1707Z" fill="#BB0A08"/>
<path d="M8.05727 7.992C8.00422 8.01716 7.94185 8.06109 7.91694 8.09241C7.89202 8.12061 7.66828 8.5494 7.41973 9.04388L6.96923 9.93895L5.98529 10.0887C5.4449 10.1715 4.96703 10.2573 4.92647 10.2793C4.75174 10.3736 4.68995 10.6144 4.7936 10.7922C4.82188 10.8453 5.16038 11.188 5.54583 11.5525C5.92815 11.917 6.24159 12.238 6.24168 12.2661C6.24176 12.2942 6.16498 12.7538 6.06967 13.2885C5.90674 14.2077 5.90066 14.264 5.94472 14.3701C5.97303 14.4325 6.03263 14.5105 6.0796 14.5416C6.26432 14.6598 6.35486 14.6314 7.29715 14.1318C7.78078 13.8772 8.19268 13.6698 8.21143 13.6697C8.23018 13.6696 8.6245 13.8654 9.08771 14.1046C9.55092 14.347 9.97653 14.5552 10.0328 14.5706C10.258 14.6356 10.4981 14.4536 10.4974 14.2224C10.4972 14.1567 10.4208 13.6788 10.3256 13.1666L10.1541 12.2327L10.5467 11.8441C11.5937 10.8223 11.6373 10.7753 11.6588 10.6533C11.6865 10.5095 11.6111 10.3472 11.4859 10.2726C11.4232 10.2384 11.0699 10.1707 10.4009 10.0726L9.40983 9.92867L8.95089 9.01126C8.6554 8.41837 8.46689 8.07518 8.41678 8.03782C8.30718 7.96002 8.16962 7.94167 8.05727 7.992ZM8.52843 9.87813C8.70761 10.237 8.88354 10.5552 8.92113 10.5864C8.97127 10.6331 9.14325 10.667 9.69035 10.7435C10.0811 10.7986 10.4032 10.8508 10.4126 10.8601C10.422 10.8663 10.207 11.0888 9.93589 11.3521C9.66478 11.6154 9.428 11.8599 9.40623 11.8974C9.34715 11.9976 9.35688 12.1195 9.47771 12.8285C9.54128 13.1908 9.58591 13.4907 9.58279 13.4938C9.57656 13.5001 9.298 13.354 8.9631 13.1737C8.44665 12.894 8.33087 12.8412 8.21212 12.8416C8.09337 12.8419 7.98102 12.8922 7.45685 13.175C7.11676 13.3604 6.83903 13.4956 6.83897 13.4737C6.83892 13.455 6.88795 13.1267 6.94933 12.7453C7.04756 12.1419 7.05664 12.0387 7.02201 11.9544C6.99998 11.9014 6.74921 11.6365 6.46716 11.3654C5.97513 10.8887 5.95633 10.8701 6.04065 10.8511C6.0875 10.8415 6.40299 10.7969 6.73723 10.749C7.07147 10.7043 7.3838 10.644 7.43372 10.6188C7.50237 10.5843 7.58942 10.4309 7.85351 9.90511C8.0368 9.53582 8.18903 9.23225 8.19216 9.23224C8.19841 9.23222 8.34926 9.5224 8.52843 9.87813Z" fill="#BB0A08"/>
</svg>
