<svg width="18" height="16" viewBox="0 0 18 16" fill="none" xmlns="http://www.w3.org/2000/svg">
<g clip-path="url(#clip0_2813_2748)">
<path d="M3.19198 3.36185C1.46084 3.36693 0.0461414 4.78559 0.0512058 6.51208C0.0531682 7.18108 0.268591 7.8022 0.631739 8.31219L2.83329 12.0923C3.14121 12.4922 3.34499 12.4156 3.59912 12.0691L6.00295 7.95053C6.05144 7.86189 6.08942 7.76787 6.12258 7.67178C6.2748 7.29769 6.35245 6.89747 6.35118 6.4936C6.34611 4.76711 4.92357 3.35677 3.19198 3.36185ZM3.1963 4.83365C4.12869 4.83091 4.87246 5.56838 4.87519 6.49808C4.87791 7.42778 4.13848 8.1693 3.20609 8.17203C2.27384 8.17477 1.52993 7.43745 1.5272 6.5079C1.52447 5.5782 2.26405 4.83638 3.1963 4.83365Z" fill="#BB0A08"/>
<path fill-rule="evenodd" clip-rule="evenodd" d="M16.7631 3.13837C16.4261 3.14686 16.0882 3.1621 15.7497 3.18815L15.8043 4.01779C16.1295 3.99328 16.4552 3.97717 16.7812 3.96948L16.7631 3.13837ZM14.9672 3.26664C14.4469 3.33282 13.9222 3.42646 13.4036 3.57603L13.6014 4.3796C14.0726 4.24382 14.5611 4.15554 15.0573 4.09243L14.9672 3.26664ZM12.6273 3.85671C12.472 3.92581 12.3217 4.00559 12.1774 4.09548L12.1768 4.09623L12.1759 4.09653C11.97 4.22704 11.7532 4.39253 11.5764 4.6326C11.4484 4.80652 11.3439 5.02628 11.32 5.28585L12.0845 5.36836C12.0901 5.30744 12.121 5.22695 12.1769 5.15119L12.1772 5.15119L12.1772 5.15089C12.2673 5.02822 12.4026 4.91667 12.5635 4.8145L12.5641 4.8142C12.6788 4.74292 12.7983 4.67963 12.9218 4.62475L12.6273 3.85671ZM12.2394 5.73811L11.7458 6.37481C11.8636 6.48186 11.9869 6.564 12.1061 6.63265L12.1076 6.6334L12.1091 6.63429C12.5046 6.85768 12.912 6.98324 13.2898 7.10243L13.5043 6.3041C13.1267 6.1849 12.7707 6.06985 12.4654 5.89764C12.378 5.8472 12.3013 5.79447 12.2394 5.73811ZM14.2419 6.52634L14.0325 7.326L14.1328 7.35691L14.2559 7.39585C14.6634 7.5271 15.0538 7.66741 15.403 7.86213L15.7545 7.1231C15.3323 6.88749 14.8943 6.73397 14.4723 6.59811L14.4711 6.59781L14.3446 6.55783L14.2419 6.52634ZM16.4754 7.67479L15.9336 8.26438C16.0625 8.40305 16.1591 8.57002 16.2064 8.74268L16.2067 8.74358L16.207 8.74493C16.2634 8.94652 16.2642 9.18381 16.2213 9.42364L16.9754 9.58223C17.0359 9.24365 17.0447 8.87207 16.9425 8.50562C16.8535 8.18158 16.6847 7.90038 16.4754 7.67479ZM15.9597 9.92541C15.8769 10.0134 15.7853 10.0926 15.6865 10.162L15.6862 10.162C15.4167 10.3527 15.1039 10.4967 14.7716 10.6207L15.022 11.4066C15.3855 11.271 15.7587 11.1049 16.1072 10.8581L16.1081 10.8574L16.1085 10.8571C16.2516 10.7562 16.3839 10.6409 16.5033 10.5129L15.9597 9.92541ZM14.0664 10.8443C13.5848 10.9753 13.0925 11.0755 12.5941 11.1606L12.7141 11.9821C13.227 11.8944 13.742 11.7898 14.2537 11.6506L14.0664 10.8443ZM11.8443 11.2762C11.3426 11.3463 10.8382 11.4037 10.3322 11.4529L10.401 12.281C10.9147 12.2312 11.4293 12.1728 11.9432 12.101L11.8443 11.2762ZM9.57177 11.5204C9.06474 11.562 8.55649 11.5962 8.04777 11.6253L8.08861 12.4556C8.60227 12.4264 9.11637 12.3917 9.6303 12.3494L9.57177 11.5204ZM7.28333 11.6651C6.97843 11.6802 6.67276 11.6928 6.36635 11.7045L6.39398 12.5356C6.70232 12.5241 7.01058 12.5109 7.31877 12.496L7.28333 11.6651Z" fill="#BB0A08"/>
</g>
<defs>
<clipPath id="clip0_2813_2748">
<rect width="16.9616" height="15.3668" fill="white" transform="translate(0.0327148 0.1875) rotate(-0.168069)"/>
</clipPath>
</defs>
</svg>
