<svg width="16" height="16" viewBox="0 0 16 16" fill="none" xmlns="http://www.w3.org/2000/svg">
<path d="M5.09926 2.12128C5.11203 2.05558 5.11149 1.98798 5.09765 1.9225C5.08382 1.85702 5.05698 1.79498 5.01872 1.74006C4.98046 1.68514 4.93157 1.63846 4.87494 1.60279C4.81831 1.56712 4.75509 1.54318 4.68904 1.53239C4.62299 1.5216 4.55544 1.52419 4.4904 1.53999C4.42537 1.55579 4.36416 1.58449 4.31042 1.62438C4.25668 1.66428 4.2115 1.71455 4.17755 1.77223C4.1436 1.82991 4.12158 1.89382 4.11278 1.96017L2.14799 13.966C2.13522 14.0317 2.13577 14.0993 2.1496 14.1648C2.16344 14.2302 2.19028 14.2923 2.22853 14.3472C2.26679 14.4021 2.31568 14.4488 2.37231 14.4845C2.42894 14.5201 2.49216 14.5441 2.55821 14.5549C2.62427 14.5657 2.69181 14.5631 2.75685 14.5473C2.82189 14.5315 2.88309 14.5028 2.93683 14.4629C2.99057 14.423 3.03576 14.3727 3.0697 14.315C3.10365 14.2573 3.12568 14.1934 3.13447 14.1271L3.79267 10.1051C4.59902 10.2208 5.47013 10.2572 6.15754 10.7362C6.58286 11.04 7.07425 11.2383 7.59124 11.315C8.55766 11.4582 9.4201 10.9246 10.3745 11.0728L11.6641 11.2631C11.9242 11.3023 12.1936 11.1015 12.2319 10.8414L13.0985 4.90482L13.1024 4.90081C13.1156 4.77015 13.0787 4.63935 12.9991 4.53487C12.9196 4.4304 12.8033 4.36005 12.6738 4.33807L11.3842 4.14785C10.4208 4.00767 9.55633 4.52621 8.60192 4.38601C8.17386 4.32229 7.7664 4.16021 7.41153 3.9125C6.67101 3.39767 5.79076 3.31425 4.92341 3.1948L5.09926 2.12128ZM4.51964 5.66099L4.84386 3.68803C5.44309 3.76827 6.07723 3.81341 6.63293 4.05179L6.3437 6.01764C5.77301 5.78632 5.12889 5.74321 4.51964 5.66099ZM3.87423 9.6129L4.19844 7.63794C4.81869 7.72212 5.47582 7.7642 6.05751 8.00049L6.35171 6.02362C7.0105 6.29169 7.51286 6.75322 8.24717 6.85906L8.54136 4.87819C9.27968 4.98703 9.88984 4.69723 10.5987 4.63816L10.3044 6.60503C9.59461 6.66711 8.9815 6.96891 8.24518 6.86107L7.96498 8.8399C7.22866 8.73206 6.7253 8.26853 6.06351 8.00147L5.76931 9.97834C5.17361 9.74109 4.50549 9.70105 3.87423 9.6129ZM7.96598 8.8409C8.7003 8.94874 9.31641 8.64493 10.0262 8.58385L10.3044 6.60503C10.9593 6.54311 11.6298 6.71214 12.273 6.80825L11.9988 8.78507C11.3546 8.68996 10.6821 8.51993 10.0272 8.58385L9.73304 10.5607C9.02418 10.6108 8.3991 10.9246 7.67178 10.8168L7.96598 8.8409Z" fill="#BB0A08"/>
</svg>
