<svg width="11" height="13" viewBox="0 0 11 13" fill="none" xmlns="http://www.w3.org/2000/svg">
<path d="M9.24414 8.48105C8.78447 8.48105 8.36972 8.66705 8.05764 8.96525L3.94164 6.50105C3.97081 6.36305 3.99414 6.22505 3.99414 6.08105C3.99414 5.93705 3.97081 5.79905 3.94164 5.66105L8.05414 3.19505C8.36914 3.49505 8.78331 3.68105 9.24414 3.68105C10.2125 3.68105 10.9941 2.87705 10.9941 1.88105C10.9941 0.885055 10.2125 0.0810547 9.24414 0.0810547C8.27581 0.0810547 7.49414 0.885055 7.49414 1.88105C7.49414 2.02505 7.51747 2.16305 7.54664 2.30105L3.43414 4.76705C3.11914 4.46705 2.70497 4.28105 2.24414 4.28105C1.27581 4.28105 0.494141 5.08505 0.494141 6.08105C0.494141 7.07705 1.27581 7.88105 2.24414 7.88105C2.70497 7.88105 3.11914 7.69505 3.43414 7.39505L7.54547 9.86585C7.51262 10.0017 7.49539 10.1411 7.49414 10.2811C7.49414 10.6371 7.59678 10.9851 7.78907 11.2811C7.98136 11.5771 8.25467 11.8078 8.57444 11.944C8.89421 12.0803 9.24608 12.1159 9.58555 12.0465C9.92502 11.977 10.2368 11.8056 10.4816 11.5538C10.7263 11.3021 10.893 10.9814 10.9605 10.6322C11.028 10.2831 10.9934 9.92113 10.8609 9.59222C10.7285 9.26332 10.5042 8.9822 10.2164 8.78441C9.9286 8.58662 9.59026 8.48105 9.24414 8.48105Z" fill="#25282B"/>
</svg>
