<svg width="50" height="50" viewBox="0 0 50 50" fill="none" xmlns="http://www.w3.org/2000/svg">
<circle cx="25" cy="25" r="25" fill="#E93C3C"/>
<path d="M29.6846 29.8C28.7652 29.8 27.9357 30.172 27.3116 30.7684L19.0796 25.84C19.1379 25.564 19.1846 25.288 19.1846 25C19.1846 24.712 19.1379 24.436 19.0796 24.16L27.3046 19.228C27.9346 19.828 28.7629 20.2 29.6846 20.2C31.6212 20.2 33.1846 18.592 33.1846 16.6C33.1846 14.608 31.6212 13 29.6846 13C27.7479 13 26.1846 14.608 26.1846 16.6C26.1846 16.888 26.2312 17.164 26.2896 17.44L18.0646 22.372C17.4346 21.772 16.6062 21.4 15.6846 21.4C13.7479 21.4 12.1846 23.008 12.1846 25C12.1846 26.992 13.7479 28.6 15.6846 28.6C16.6062 28.6 17.4346 28.228 18.0646 27.628L26.2872 32.5696C26.2215 32.8413 26.1871 33.12 26.1846 33.4C26.1846 34.112 26.3898 34.808 26.7744 35.4001C27.159 35.9921 27.7056 36.4535 28.3452 36.726C28.9847 36.9984 29.6885 37.0697 30.3674 36.9308C31.0463 36.7919 31.67 36.4491 32.1594 35.9456C32.6489 35.4421 32.9823 34.8007 33.1173 34.1023C33.2524 33.404 33.1831 32.6802 32.9181 32.0223C32.6532 31.3645 32.2046 30.8023 31.6291 30.4067C31.0535 30.0111 30.3768 29.8 29.6846 29.8Z" fill="#F9F9FA"/>
</svg>
