<svg width="33" height="33" viewBox="0 0 33 33" fill="none" xmlns="http://www.w3.org/2000/svg">
<g clip-path="url(#clip0_1457_592)">
<path d="M16.3899 7.82587L10.1469 0.733037L0.369141 0.761719L12.8579 15.8363L23.0863 11.584L16.3899 7.82587Z" fill="#55ACEE"/>
<path d="M22.5913 0.696592L16.39 7.82592L21.2002 14.3114L22.2869 12.9846L32.3691 0.66791L22.5913 0.696592Z" fill="#3B88C3"/>
<path d="M21.0375 14.9466C21.1081 14.7535 21.1528 14.5481 21.1522 14.3303C21.1508 13.8588 20.9622 13.4072 20.6278 13.0747C20.2934 12.7423 19.8407 12.5564 19.3692 12.5577L13.443 12.5751C12.9715 12.5765 12.5199 12.7651 12.1875 13.0995C11.855 13.4339 11.6691 13.8866 11.6704 14.3581C11.6711 14.5759 11.7161 14.7811 11.7887 14.9738C8.89747 16.6054 6.94566 19.7053 6.95609 23.2609C6.97057 28.4973 11.2283 32.7301 16.4648 32.7148C21.7012 32.6994 25.934 28.4417 25.9187 23.2052C25.9082 19.6497 23.9383 16.5612 21.0375 14.9466Z" fill="#CCD6DD"/>
<path d="M20.0019 26.4116L16.8526 26.4208C17.6298 25.3217 18.9882 23.5399 19.517 22.5899C19.9138 21.8074 20.1612 21.3089 20.1586 20.428C20.1532 18.5827 18.7532 17.0748 16.3763 17.0818C14.3986 17.0876 13.0567 18.7199 13.0567 18.7199C12.9406 18.8536 12.9581 19.0527 13.0748 19.1528L14.0921 20.18C14.1221 20.2115 14.1582 20.2366 14.1982 20.2537C14.2382 20.2708 14.2813 20.2795 14.3248 20.2794C14.3683 20.2793 14.4114 20.2703 14.4513 20.253C14.4912 20.2356 14.5272 20.2104 14.557 20.1787C14.8715 19.8284 15.4852 19.3448 16.1661 19.3428C17.0967 19.3401 17.6308 19.903 17.6327 20.535C17.6341 20.9999 17.4194 21.4663 17.2044 21.7993C16.2275 23.2973 13.7777 26.6459 12.8179 27.9118L12.8188 28.2442C12.8193 28.4113 12.9522 28.5594 13.1353 28.5589L20.0082 28.5387C20.091 28.5356 20.1695 28.5012 20.2278 28.4425C20.2862 28.3837 20.3202 28.305 20.3228 28.2222L20.3184 26.7271C20.3157 26.6441 20.2815 26.5653 20.2227 26.5067C20.1639 26.448 20.0849 26.414 20.0019 26.4116Z" fill="#627077"/>
</g>
<defs>
<clipPath id="clip0_1457_592">
<rect width="32" height="32" fill="white" transform="translate(0.369141 0.761719) rotate(-0.168069)"/>
</clipPath>
</defs>
</svg>
