<svg width="132" height="201" viewBox="0 0 132 201" fill="none" xmlns="http://www.w3.org/2000/svg">
<g clip-path="url(#clip0_1938_1457)">
<path d="M131.074 134.602C131.074 170.798 101.732 200.139 65.5381 200.139C29.3425 200.139 0 170.798 0 134.602C0 98.4067 65.5381 0 65.5381 0C65.5381 0 131.074 98.4067 131.074 134.602Z" fill="#BB0A08"/>
<path d="M65.5371 171.387C44.1305 171.387 25.4838 156.189 21.1991 135.246C20.736 132.985 22.1929 130.779 24.4522 130.315C26.7159 129.852 28.9193 131.311 29.3823 133.571C32.8767 150.643 48.0803 163.034 65.5371 163.034C82.9924 163.034 98.1976 150.643 101.692 133.571C102.153 131.311 104.36 129.852 106.622 130.315C108.881 130.779 110.338 132.985 109.875 135.246C105.591 156.189 86.9439 171.387 65.5371 171.387Z" fill="#F2F2F2"/>
</g>
<defs>
<clipPath id="clip0_1938_1457">
<rect width="131.209" height="200.207" fill="white"/>
</clipPath>
</defs>
</svg>
