<svg width="1266" height="136" viewBox="0 0 1266 136" fill="none" xmlns="http://www.w3.org/2000/svg">
<g clip-path="url(#clip0_2203_810)">
<path d="M111.78 133.961H86.95V76.0507H24.83V133.961H0V1.4707H24.83V58.4607H86.95V1.4707H111.78V133.961Z" fill="#BB0A08"/>
<path d="M222.1 1.4707V21.0807H163.37V57.8207H209.64V76.7907H163.37V114.271H222.1V133.971H138.54V1.4707H222.1Z" fill="#BB0A08"/>
<path d="M312.86 85.0707C313.74 87.1807 314.62 89.3007 315.47 91.4407C316.32 89.2407 317.21 87.0707 318.13 84.9407C319.05 82.8007 320.02 80.7607 321.06 78.8007L360.27 5.4107C360.76 4.4907 361.26 3.7607 361.78 3.2107C362.3 2.6607 362.88 2.2607 363.52 2.0207C364.16 1.7807 364.88 1.6207 365.67 1.5607C366.46 1.5007 367.41 1.4707 368.51 1.4707H387.11V133.961H365.39V48.3807C365.39 46.7907 365.44 45.0507 365.53 43.1607C365.62 41.2707 365.76 39.3407 365.94 37.3907L325.9 112.521C324.98 114.231 323.79 115.561 322.33 116.511C320.86 117.461 319.15 117.931 317.2 117.931H313.81C311.85 117.931 310.14 117.461 308.68 116.511C307.21 115.561 306.02 114.241 305.11 112.521L264.52 37.1107C264.76 39.1307 264.93 41.1007 265.02 43.0207C265.11 44.9407 265.16 46.7307 265.16 48.3807V133.961H243.44V1.4707H262.04C263.14 1.4707 264.09 1.5007 264.88 1.5607C265.67 1.6207 266.39 1.7707 267.03 2.0207C267.67 2.2707 268.27 2.6607 268.82 3.2107C269.37 3.7607 269.89 4.4907 270.38 5.4107L309.96 78.9907C311 80.9507 311.96 82.9807 312.85 85.0807L312.86 85.0707Z" fill="#BB0A08"/>
<path d="M540.96 67.7102C540.96 77.4202 539.34 86.4202 536.1 94.6902C532.86 102.97 528.31 110.13 522.45 116.18C516.59 122.23 509.53 126.95 501.28 130.34C493.03 133.73 483.9 135.42 473.88 135.42C463.86 135.42 454.71 133.72 446.44 130.34C438.16 126.95 431.08 122.23 425.18 116.18C419.28 110.13 414.72 102.97 411.48 94.6902C408.24 86.4102 406.62 77.4202 406.62 67.7102C406.62 58.0002 408.24 49.0002 411.48 40.7302C414.72 32.4502 419.28 25.2902 425.18 19.2402C431.07 13.1902 438.16 8.47023 446.44 5.08023C454.72 1.69023 463.86 -0.00976562 473.88 -0.00976562C483.9 -0.00976562 493.03 1.70023 501.28 5.12023C509.53 8.54023 516.58 13.2602 522.45 19.2802C528.31 25.3002 532.86 32.4402 536.1 40.7202C539.34 49.0002 540.96 57.9902 540.96 67.7002V67.7102ZM515.67 67.7102C515.67 60.4402 514.71 53.9202 512.78 48.1502C510.86 42.3802 508.09 37.4802 504.49 33.4402C500.89 29.4102 496.5 26.3202 491.34 24.1902C486.18 22.0502 480.36 20.9802 473.89 20.9802C467.42 20.9802 461.58 22.0502 456.39 24.1902C451.2 26.3302 446.78 29.4102 443.15 33.4402C439.52 37.4702 436.72 42.3702 434.77 48.1502C432.81 53.9202 431.84 60.4402 431.84 67.7102C431.84 74.9802 432.82 81.5002 434.77 87.2702C436.72 93.0402 439.52 97.9302 443.15 101.93C446.78 105.93 451.2 109 456.39 111.14C461.58 113.28 467.41 114.35 473.89 114.35C480.37 114.35 486.18 113.28 491.34 111.14C496.5 109 500.88 105.93 504.49 101.93C508.09 97.9302 510.86 93.0402 512.78 87.2702C514.7 81.5002 515.67 74.9802 515.67 67.7102Z" fill="#BB0A08"/>
<path d="M660.44 112.15C661.05 112.15 661.57 112.36 662 112.79L665.67 116.73C662.98 119.6 660.05 122.18 656.87 124.47C653.69 126.76 650.23 128.72 646.47 130.33C642.71 131.95 638.59 133.2 634.1 134.09C629.61 134.98 624.68 135.42 619.3 135.42C610.32 135.42 602.09 133.85 594.61 130.7C587.13 127.55 580.71 123.1 575.37 117.32C570.02 111.55 565.85 104.57 562.86 96.3801C559.87 88.1901 558.37 79.0901 558.37 69.0801C558.37 59.0701 559.91 50.2701 563 42.1401C566.08 34.0201 570.42 27.0401 576.01 21.2001C581.6 15.3701 588.29 10.8501 596.08 7.64008C603.87 4.43008 612.47 2.83008 621.87 2.83008C626.57 2.83008 630.88 3.18008 634.79 3.88008C638.7 4.58008 642.35 5.59008 645.74 6.90008C649.13 8.21008 652.32 9.85008 655.31 11.8001C658.3 13.7601 661.24 16.0101 664.11 18.5801L661.27 22.7001C660.78 23.4301 660.02 23.8001 658.98 23.8001C658.43 23.8001 657.73 23.4801 656.87 22.8401C656.01 22.2001 654.93 21.4101 653.62 20.4601C652.31 19.5101 650.72 18.4801 648.85 17.3401C646.99 16.2101 644.77 15.1701 642.21 14.2201C639.64 13.2701 636.68 12.4801 633.32 11.8401C629.96 11.2001 626.14 10.8801 621.87 10.8801C613.99 10.8801 606.75 12.2401 600.16 14.9601C593.56 17.6801 587.88 21.5601 583.12 26.6001C578.36 31.6401 574.65 37.7501 571.99 44.9301C569.33 52.1101 568 60.1601 568 69.0701C568 77.9801 569.31 86.4201 571.94 93.6301C574.57 100.84 578.2 106.93 582.84 111.91C587.48 116.89 592.96 120.71 599.29 123.36C605.62 126.01 612.47 127.35 619.86 127.35C624.5 127.35 628.64 127.04 632.28 126.43C635.91 125.82 639.26 124.9 642.31 123.68C645.36 122.46 648.2 120.96 650.83 119.19C653.45 117.42 656.05 115.34 658.62 112.96C658.92 112.72 659.22 112.52 659.49 112.36C659.77 112.21 660.09 112.13 660.45 112.13L660.44 112.15Z" fill="#F2F2F2"/>
<path d="M707.99 133.961H698.55V4.31055H707.99V133.961Z" fill="#F2F2F2"/>
<path d="M865.59 69.0906C865.59 79.1106 864.09 88.1906 861.1 96.3506C858.11 104.501 853.89 111.471 848.46 117.241C843.02 123.011 836.52 127.471 828.94 130.621C821.36 133.771 812.97 135.341 803.74 135.341C794.51 135.341 786.3 133.771 778.73 130.621C771.16 127.481 764.65 123.021 759.21 117.241C753.77 111.471 749.54 104.501 746.52 96.3506C743.5 88.1906 741.98 79.1106 741.98 69.0906C741.98 59.0706 743.49 50.0806 746.52 41.9206C749.54 33.7606 753.77 26.8006 759.21 21.0306C764.65 15.2606 771.15 10.7806 778.73 7.61059C786.3 4.43059 794.64 2.85059 803.74 2.85059C812.84 2.85059 821.36 4.42059 828.94 7.57059C836.51 10.7206 843.02 15.1906 848.46 20.9906C853.9 26.7906 858.11 33.7706 861.1 41.9306C864.09 50.0806 865.59 59.1406 865.59 69.1006V69.0906ZM855.88 69.0906C855.88 60.0506 854.63 51.9306 852.12 44.7206C849.62 37.5106 846.09 31.4006 841.54 26.3906C836.99 21.3806 831.51 17.5506 825.09 14.8906C818.67 12.2306 811.56 10.9006 803.74 10.9006C795.92 10.9006 789 12.2306 782.62 14.8906C776.24 17.5506 770.74 21.3806 766.13 26.3906C761.52 31.4006 757.94 37.5106 755.41 44.7206C752.87 51.9306 751.61 60.0506 751.61 69.0906C751.61 78.1306 752.88 86.3306 755.41 93.5106C757.94 100.691 761.52 106.781 766.13 111.791C770.74 116.801 776.24 120.621 782.62 123.241C789 125.871 796.04 127.181 803.74 127.181C811.44 127.181 818.67 125.871 825.09 123.241C831.5 120.621 836.99 116.801 841.54 111.791C846.09 106.781 849.62 100.691 852.12 93.5106C854.62 86.3306 855.88 78.1906 855.88 69.0906Z" fill="#F2F2F2"/>
<path d="M902.69 4.63055C903.18 4.84055 903.7 5.32055 904.25 6.05055L988.18 118.381C988 116.551 987.9 114.781 987.9 113.071V4.31055H996.15V133.961H991.66C990.25 133.961 989.12 133.351 988.27 132.131L903.97 19.6105C904.15 21.4405 904.25 23.1805 904.25 24.8305V133.961H896.09V4.31055H900.67C901.52 4.31055 902.2 4.42055 902.69 4.63055Z" fill="#F2F2F2"/>
<path d="M1112.33 4.31055V12.1005H1044.07V64.5105H1100.88V72.1206H1044.07V126.181H1112.33V133.971H1034.63V4.31055H1112.33Z" fill="#F2F2F2"/>
<path d="M1265.49 91.0303C1265.49 115.03 1246.03 134.49 1222.03 134.49C1198.03 134.49 1178.57 115.03 1178.57 91.0303C1178.57 67.0303 1222.03 1.78027 1222.03 1.78027C1222.03 1.78027 1265.49 67.0303 1265.49 91.0303Z" fill="#BB0A08"/>
<path d="M1222.03 115.421C1207.84 115.421 1195.47 105.341 1192.63 91.4605C1192.32 89.9605 1193.29 88.5005 1194.79 88.1905C1196.29 87.8805 1197.75 88.8505 1198.06 90.3505C1200.38 101.671 1210.46 109.891 1222.03 109.891C1233.6 109.891 1243.69 101.671 1246 90.3505C1246.31 88.8505 1247.77 87.8805 1249.27 88.1905C1250.77 88.5005 1251.73 89.9605 1251.43 91.4605C1248.59 105.351 1236.22 115.421 1222.03 115.421Z" fill="#F2F2F2"/>
</g>
<defs>
<clipPath id="clip0_2203_810">
<rect width="1265.49" height="135.42" fill="white"/>
</clipPath>
</defs>
</svg>
