<svg width="25" height="24" viewBox="0 0 25 24" fill="none" xmlns="http://www.w3.org/2000/svg">
<path d="M22.4347 9.99994H7.2484L13.8511 3.42536C14.2279 3.04906 14.4396 2.53869 14.4396 2.00653C14.4396 1.47437 14.2279 0.963996 13.8511 0.587699C13.4744 0.211402 12.9634 0 12.4306 0C11.8977 0 11.3867 0.211402 11.01 0.587699L1.00581 10.5795C0.823654 10.7695 0.680865 10.9936 0.585636 11.2389C0.385517 11.7254 0.385517 12.2711 0.585636 12.7577C0.680865 13.003 0.823654 13.2271 1.00581 13.4171L11.01 23.4089C11.196 23.5962 11.4173 23.7449 11.6611 23.8463C11.9049 23.9478 12.1664 24 12.4306 24C12.6947 24 12.9562 23.9478 13.2 23.8463C13.4439 23.7449 13.6651 23.5962 13.8511 23.4089C14.0387 23.2231 14.1875 23.0021 14.2891 22.7586C14.3907 22.5151 14.443 22.2539 14.443 21.9901C14.443 21.7263 14.3907 21.4651 14.2891 21.2215C14.1875 20.978 14.0387 20.757 13.8511 20.5712L7.2484 13.9966H22.4347C22.9654 13.9966 23.4743 13.7861 23.8495 13.4113C24.2247 13.0366 24.4355 12.5283 24.4355 11.9983C24.4355 11.4683 24.2247 10.96 23.8495 10.5852C23.4743 10.2105 22.9654 9.99994 22.4347 9.99994Z" fill="#25282B"/>
</svg>
