<svg width="33" height="33" viewBox="0 0 33 33" fill="none" xmlns="http://www.w3.org/2000/svg">
<g clip-path="url(#clip0_1457_599)">
<path d="M16.4427 7.28583L10.1996 0.192998L0.421875 0.22168L12.9106 15.2962L23.1391 11.044L16.4427 7.28583Z" fill="#55ACEE"/>
<path d="M22.6441 0.156553L16.4427 7.28589L21.2529 13.7714L22.3397 12.4446L32.4218 0.127871L22.6441 0.156553Z" fill="#3B88C3"/>
<path d="M21.0903 14.4066C21.1608 14.2135 21.2056 14.008 21.2049 13.7903C21.2035 13.3188 21.0149 12.8671 20.6805 12.5347C20.3462 12.2023 19.8934 12.0163 19.4219 12.0177L13.4957 12.0351C13.0242 12.0365 12.5726 12.2251 12.2402 12.5595C11.9078 12.8938 11.7218 13.3466 11.7232 13.8181C11.7238 14.0358 11.7689 14.241 11.8414 14.4337C8.9502 16.0653 6.9984 19.1653 7.00883 22.7208C7.0233 27.9572 11.2811 32.1901 16.5175 32.1747C21.7539 32.1594 25.9868 27.9016 25.9714 22.6652C25.961 19.1097 23.991 16.0212 21.0903 14.4066Z" fill="#FF8A3B"/>
<path d="M13.0501 26.2736L14.0941 25.2234C14.1462 25.1664 14.2178 25.1312 14.2948 25.1247C14.3717 25.1182 14.4482 25.141 14.5091 25.1884C14.5091 25.1884 15.5416 25.9508 16.3389 25.9484C17.0545 25.9463 17.7843 25.346 17.7821 24.6144C17.78 23.8828 17.0297 23.2708 15.8004 23.2744L15.2324 23.2761C15.1497 23.2735 15.0711 23.2395 15.0125 23.1811C14.9539 23.1226 14.9197 23.0442 14.9168 22.9615L14.9128 21.5819C14.9122 21.3988 15.0612 21.2659 15.2265 21.2654L15.7945 21.2638C16.958 21.2604 17.5706 20.6941 17.5685 19.9795C17.5664 19.2639 16.9506 18.735 16.2351 18.7371C15.5035 18.7393 15.0398 19.1229 14.7917 19.4054C14.6748 19.539 14.4765 19.5396 14.3438 19.4245L13.3266 18.4301C13.1921 18.3132 13.2084 18.1149 13.3254 17.9981C13.3254 17.9981 14.6837 16.531 16.4944 16.5257C18.4224 16.52 20.088 17.6956 20.0935 19.5569C20.0973 20.836 19.1356 21.7864 18.3891 22.1371L18.3892 22.1877C19.1715 22.5179 20.4039 23.5445 20.4081 24.9738C20.4134 26.7854 18.8387 28.1535 16.5445 28.1603C14.4521 28.1664 13.3842 27.1384 13.0344 26.6914C12.9336 26.5726 12.9509 26.3895 13.0501 26.2736Z" fill="#7C4119"/>
</g>
<defs>
<clipPath id="clip0_1457_599">
<rect width="32" height="32" fill="white" transform="translate(0.421875 0.22168) rotate(-0.168069)"/>
</clipPath>
</defs>
</svg>
