<svg width="33" height="33" viewBox="0 0 33 33" fill="none" xmlns="http://www.w3.org/2000/svg">
<g clip-path="url(#clip0_1457_585)">
<path d="M16.2581 7.55633L10.015 0.463506L0.237305 0.492188L12.726 15.5667L22.9545 11.3145L16.2581 7.55633Z" fill="#55ACEE"/>
<path d="M22.4595 0.427061L16.2582 7.55639L21.0683 14.0419L22.1551 12.7151L32.2372 0.398379L22.4595 0.427061Z" fill="#3B88C3"/>
<path d="M20.9057 14.6771C20.9763 14.484 21.021 14.2785 21.0203 14.0608C21.019 13.5893 20.8303 13.1376 20.496 12.8052C20.1616 12.4728 19.7089 12.2868 19.2374 12.2882L13.3112 12.3056C12.8397 12.307 12.388 12.4956 12.0556 12.83C11.7232 13.1643 11.5372 13.6171 11.5386 14.0886C11.5392 14.3063 11.5843 14.5115 11.6569 14.7042C8.76563 16.3358 6.81383 19.4358 6.82426 22.9913C6.83873 28.2278 11.0965 32.4606 16.3329 32.4453C21.5693 32.4299 25.8022 28.1721 25.7868 22.9357C25.7764 19.3802 23.8065 16.2917 20.9057 14.6771Z" fill="#FFAC33"/>
<path d="M17.5335 16.9749L16.0038 16.9794L13.5827 18.8816C13.5262 18.9533 13.4918 19.0399 13.4838 19.1308L13.4869 20.1779C13.4874 20.3432 13.6212 20.4922 13.7874 20.4917L15.3829 20.487L15.4049 27.9661C15.4054 28.1332 15.5391 28.2813 15.7213 28.2807L17.5667 28.2753C17.732 28.2748 17.8649 28.1251 17.8644 27.9589L17.8331 17.2887C17.8326 17.1234 17.6997 16.9744 17.5335 16.9749Z" fill="#9E5200"/>
</g>
<defs>
<clipPath id="clip0_1457_585">
<rect width="32" height="32" fill="white" transform="translate(0.237305 0.492188) rotate(-0.168069)"/>
</clipPath>
</defs>
</svg>
