<svg width="17" height="17" viewBox="0 0 17 17" fill="none" xmlns="http://www.w3.org/2000/svg">
<g clip-path="url(#clip0_2813_2673)">
<path d="M3.67292 1.02173C3.52618 1.06904 3.29544 1.24472 3.22703 1.36054C3.20217 1.40749 3.18412 1.64505 3.17599 2.07007L3.16224 2.71074L2.34979 2.72875C1.46235 2.7501 1.41238 2.75962 1.10982 2.95426C0.807278 3.15202 0.561486 3.5215 0.493808 3.88732C0.472254 3.99676 0.468783 6.00928 0.479792 9.76239C0.494202 14.6749 0.502872 15.4998 0.544047 15.6872C0.642278 16.1494 0.931023 16.5736 1.28477 16.7851C1.63851 16.9934 1.16035 16.9823 8.21969 16.9616C15.279 16.9409 14.801 16.9548 15.1535 16.7444C15.506 16.5308 15.7922 16.105 15.8877 15.6422C15.9555 15.3233 15.9227 4.12644 15.8562 3.81101C15.7516 3.32694 15.4224 2.94353 14.9593 2.76363C14.8436 2.72022 14.6748 2.70822 14.006 2.69456L13.1935 2.68131L13.1759 2.04074C13.1653 1.61577 13.1459 1.37832 13.1207 1.33152C13.0485 1.20673 12.8168 1.03866 12.651 0.992273C12.5196 0.955159 12.3384 0.946315 11.729 0.957478C11.0165 0.968943 10.9603 0.972233 10.8417 1.03821C10.6795 1.12618 10.5612 1.26403 10.5179 1.41728C10.5024 1.47983 10.4877 1.7955 10.4887 2.11737L10.4904 2.70487L8.17789 2.71165L5.8654 2.71844L5.86368 2.13094C5.86274 1.80906 5.84618 1.49349 5.83038 1.43103C5.78618 1.27804 5.66702 1.14089 5.50427 1.05386C5.3822 0.988596 5.33219 0.985617 4.59468 0.98153C3.98841 0.977059 3.78219 0.987039 3.67292 1.02173ZM5.08443 2.81448L5.08755 3.87697L4.55003 3.8723L4.00938 3.86451L3.99691 2.80829L3.98757 1.75519L4.53444 1.75359L5.08131 1.75198L5.08443 2.81448ZM12.4219 2.78358L12.4156 3.83985L11.8218 3.84159L11.2281 3.84333L11.2156 2.78712L11.2063 1.73401L11.8157 1.73223L12.425 1.73044L12.4219 2.78358ZM3.18108 3.80444C3.19771 4.14814 3.23549 4.24178 3.40783 4.40065C3.63031 4.60937 3.65221 4.61556 4.50848 4.62242C5.40851 4.63228 5.47722 4.61646 5.67656 4.39087C5.82918 4.21855 5.86939 4.0778 5.86839 3.73718L5.8676 3.46843L8.18009 3.46165L10.4926 3.45487L10.4934 3.72361C10.4944 4.06424 10.5354 4.20474 10.689 4.37617C10.8897 4.60058 10.9585 4.616 11.8585 4.60086C12.7147 4.58898 12.7365 4.58266 12.9578 4.37264C13.1292 4.21276 13.1664 4.1189 13.181 3.77511L13.1957 3.46256L13.8613 3.45123C14.6019 3.43969 14.7176 3.4581 14.8899 3.60759C15.1155 3.80693 15.1187 3.81317 15.1226 5.15067L15.1261 6.34754L8.18862 6.36789L1.25115 6.38824L1.24764 5.19137C1.24376 3.8695 1.24684 3.85386 1.45564 3.6595C1.62393 3.49963 1.72387 3.48059 2.47702 3.48775L3.16454 3.49199L3.18108 3.80444ZM15.1345 11.3382C15.1368 15.3257 15.1344 15.5882 15.0816 15.7008C15.0071 15.8604 14.8171 16.0672 14.6954 16.1207C14.5456 16.1837 1.88937 16.2208 1.73918 16.1556C1.68286 16.1339 1.57949 16.0498 1.51051 15.9719C1.26281 15.6914 1.27939 16.0163 1.26562 11.3226L1.25335 7.13823L8.19082 7.11788L15.1283 7.09753L15.1345 11.3382Z" fill="#BB0A08"/>
<path d="M7.86586 8.15948C7.81281 8.18464 7.75044 8.22857 7.72553 8.25989C7.70062 8.28809 7.47687 8.71688 7.22832 9.21136L6.77782 10.1064L5.79388 10.2562C5.2535 10.339 4.77562 10.4248 4.73506 10.4468C4.56034 10.5411 4.49854 10.7819 4.60219 10.9597C4.63047 11.0127 4.96898 11.3555 5.35442 11.72C5.73674 12.0845 6.05019 12.4055 6.05027 12.4336C6.05035 12.4617 5.97357 12.9213 5.87827 13.456C5.71534 14.3752 5.70925 14.4315 5.75331 14.5376C5.78162 14.6 5.84123 14.6779 5.88819 14.7091C6.07292 14.8273 6.16346 14.7989 7.10575 14.2992C7.58938 14.0447 8.00127 13.8372 8.02002 13.8372C8.03877 13.8371 8.4331 14.0328 8.8963 14.2721C9.35951 14.5145 9.78512 14.7226 9.84142 14.7381C10.0666 14.8031 10.3067 14.6211 10.306 14.3899C10.3058 14.3242 10.2294 13.8463 10.1342 13.3341L9.96269 12.4002L10.3553 12.0116C11.4023 10.9897 11.4459 10.9427 11.4674 10.8208C11.4951 10.677 11.4197 10.5147 11.2944 10.4401C11.2318 10.4059 10.8785 10.3382 10.2095 10.2401L9.21843 10.0961L8.75948 9.17874C8.46399 8.58585 8.27549 8.24266 8.22538 8.2053C8.11577 8.1275 7.97822 8.10915 7.86586 8.15948ZM8.33702 10.0456C8.5162 10.4045 8.69214 10.7227 8.72973 10.7538C8.77987 10.8006 8.95184 10.8344 9.49894 10.911C9.88973 10.9661 10.2118 11.0182 10.2212 11.0276C10.2306 11.0338 10.0156 11.2563 9.74448 11.5196C9.47338 11.7829 9.23659 12.0274 9.21483 12.0649C9.15574 12.1651 9.16548 12.2869 9.28631 12.996C9.34987 13.3583 9.3945 13.6581 9.39138 13.6613C9.38515 13.6675 9.1066 13.5215 8.77169 13.3412C8.25525 13.0615 8.13947 13.0087 8.02072 13.009C7.90197 13.0094 7.78961 13.0597 7.26544 13.3425C6.92536 13.5279 6.64763 13.6631 6.64756 13.6412C6.64751 13.6225 6.69655 13.2942 6.75793 12.9128C6.85616 12.3093 6.86523 12.2062 6.83061 12.1219C6.80858 12.0689 6.5578 11.804 6.27575 11.5329C5.78373 11.0562 5.76492 11.0375 5.84924 11.0185C5.89609 11.009 6.21158 10.9643 6.54582 10.9165C6.88007 10.8718 7.19239 10.8115 7.24232 10.7863C7.31097 10.7517 7.39802 10.5984 7.6621 10.0726C7.84539 9.7033 7.99763 9.39973 8.00075 9.39972C8.007 9.3997 8.15785 9.68988 8.33702 10.0456Z" fill="#BB0A08"/>
</g>
<defs>
<clipPath id="clip0_2813_2673">
<rect width="16" height="16" fill="white" transform="translate(0.172852 0.985352) rotate(-0.168069)"/>
</clipPath>
</defs>
</svg>
