<svg width="25" height="25" viewBox="0 0 25 25" fill="none" xmlns="http://www.w3.org/2000/svg">
<path d="M0 2.5C0 1.83696 0.263392 1.20107 0.732233 0.732233C1.20107 0.263392 1.83696 0 2.5 0L15 0C15.663 0 16.2989 0.263392 16.7678 0.732233C17.2366 1.20107 17.5 1.83696 17.5 2.5V7.5H22.5C23.163 7.5 23.7989 7.76339 24.2678 8.23223C24.7366 8.70107 25 9.33696 25 10V22.5C25 23.163 24.7366 23.7989 24.2678 24.2678C23.7989 24.7366 23.163 25 22.5 25H10C9.33696 25 8.70107 24.7366 8.23223 24.2678C7.76339 23.7989 7.5 23.163 7.5 22.5V17.5H2.5C1.83696 17.5 1.20107 17.2366 0.732233 16.7678C0.263392 16.2989 0 15.663 0 15L0 2.5ZM10 17.5V22.5H22.5V10H17.5V15C17.5 15.663 17.2366 16.2989 16.7678 16.7678C16.2989 17.2366 15.663 17.5 15 17.5H10ZM15 15V2.5H2.5V15H15Z" fill="#374957"/>
</svg>
