<svg width="28" height="28" viewBox="0 0 28 28" fill="none" xmlns="http://www.w3.org/2000/svg">
<g clip-path="url(#clip0_3206_1141)">
<path d="M26.375 12.875H15.125V1.625C15.125 1.32663 15.0065 1.04048 14.7955 0.829505C14.5845 0.618526 14.2984 0.5 14 0.5V0.5C13.7016 0.5 13.4155 0.618526 13.2045 0.829505C12.9935 1.04048 12.875 1.32663 12.875 1.625V12.875H1.625C1.32663 12.875 1.04048 12.9935 0.829505 13.2045C0.618526 13.4155 0.5 13.7016 0.5 14H0.5C0.5 14.2984 0.618526 14.5845 0.829505 14.7955C1.04048 15.0065 1.32663 15.125 1.625 15.125H12.875V26.375C12.875 26.6734 12.9935 26.9595 13.2045 27.1705C13.4155 27.3815 13.7016 27.5 14 27.5C14.2984 27.5 14.5845 27.3815 14.7955 27.1705C15.0065 26.9595 15.125 26.6734 15.125 26.375V15.125H26.375C26.6734 15.125 26.9595 15.0065 27.1705 14.7955C27.3815 14.5845 27.5 14.2984 27.5 14C27.5 13.7016 27.3815 13.4155 27.1705 13.2045C26.9595 12.9935 26.6734 12.875 26.375 12.875Z" fill="#374957"/>
</g>
<defs>
<clipPath id="clip0_3206_1141">
<rect width="27" height="27" fill="white" transform="translate(0.5 0.5)"/>
</clipPath>
</defs>
</svg>
